<svg width="78" height="78" viewBox="0 0 78 78" fill="none" xmlns="http://www.w3.org/2000/svg">
<g clip-path="url(#clip0_1_122)">
<g clip-path="url(#clip1_1_122)">
<g clip-path="url(#clip2_1_122)">
<path d="M25.4209 70.793H52.4046" stroke="#0A9995" stroke-width="2.048" stroke-dasharray="4.1 2.05"/>
<path fill-rule="evenodd" clip-rule="evenodd" d="M10.9435 19.0972C15.0123 8.96565 24.3125 1.76099 35.1328 0.395103C37.2938 0.109919 41.616 0.184962 43.6727 0.530186C54.1949 2.28633 62.9287 9.28086 66.8633 19.0972C68.3388 22.7896 69.0096 26.3769 69.0096 30.5196C69.0096 35.4578 68.1003 39.6155 66.1032 43.8183C64.2849 47.6157 62.7796 49.657 58.6959 53.8297L55.596 56.9967V60.1488C55.596 63.1357 55.581 63.3309 55.2531 63.9613C55.0296 64.3966 54.6421 64.8018 54.1353 65.1471L53.3604 65.6573V68.3741C53.3604 70.2353 53.3007 71.3461 53.1517 71.9014C52.8834 72.9521 51.1992 76.5394 50.8565 76.7945C50.4839 77.0948 27.323 77.0948 26.9504 76.7945C26.6077 76.5394 24.9235 72.9521 24.6552 71.9014C24.5062 71.3461 24.4466 70.2353 24.4466 68.3741V65.6573L23.6715 65.1471C23.1648 64.8018 22.7773 64.3966 22.5537 63.9613C22.2259 63.3309 22.2109 63.1357 22.2109 60.1338V56.9818L19.2599 53.9798C17.6205 52.3137 15.8917 50.4375 15.3999 49.8071C11.9421 45.4093 9.81082 40.336 9.02091 34.7073C8.81226 33.2514 8.78245 32.2307 8.84207 29.7541C8.94639 25.4313 9.46803 22.7896 10.9435 19.0972ZM56.4901 8.66546C52.7344 5.60348 47.98 3.51712 43.1063 2.78164C41.616 2.5565 38.0987 2.3914 37.0405 2.49646C32.8077 2.93174 30.0206 3.68222 26.7418 5.24324C23.597 6.75922 21.2273 8.50035 18.634 11.2171C16.5773 13.3635 15.3104 15.1947 13.9541 17.9415C12.732 20.4031 11.9719 22.6095 11.4801 25.1461C11.0181 27.4727 10.8988 32.1107 11.2416 34.4972C11.9719 39.4655 13.7305 43.7882 16.6219 47.7058C17.3374 48.6814 19.096 50.6327 21.0931 52.659L24.3721 56.0212L24.4466 59.5334C24.5211 62.8055 24.536 63.0457 24.8191 63.2558C25.0725 63.4509 25.7879 63.4809 29.186 63.496H33.2399L33.2101 46.3999L33.1654 29.3038L32.7183 28.6434C32.1519 27.8179 30.9447 27.1724 29.9611 27.1724C28.9774 27.1724 27.7701 27.8179 27.2038 28.6434C26.8014 29.2438 26.7566 29.4089 26.7566 30.5346C26.7566 31.6303 26.8014 31.8404 27.1591 32.3959C27.6807 33.1764 28.6644 33.7617 29.6778 33.8818C30.6616 34.0019 31.0341 34.3471 30.9745 35.0825C30.9447 35.4728 30.8106 35.713 30.5125 35.9381C30.1398 36.2083 30.0356 36.2233 29.1413 36.0732C28.6048 35.9831 27.8596 35.743 27.4721 35.5629C26.5033 35.0976 25.4005 33.9568 24.9235 32.9061C24.5658 32.1556 24.5211 31.8704 24.5211 30.4746C24.5211 28.9586 24.536 28.8535 25.0278 27.9529C25.624 26.8422 26.5779 25.9417 27.7255 25.3863C28.426 25.056 28.7389 24.996 29.9611 24.996C31.1832 24.996 31.4961 25.056 32.2264 25.4013C33.3592 25.9266 34.2832 26.8122 34.8943 27.9529C35.4005 28.8977 35.4011 28.9135 35.4753 31.3682L35.4755 31.3751L35.55 33.8518H38.9034H42.2568L42.3314 31.3751C42.4059 28.8986 42.4059 28.8986 42.9126 27.9529C43.5088 26.8422 44.4626 25.9417 45.6102 25.3863C46.3107 25.056 46.6237 24.996 47.8458 24.996C49.1425 24.996 49.3511 25.0411 50.2454 25.4913C52.168 26.4219 53.2411 28.1181 53.3305 30.3245C53.3902 31.8555 53.0623 32.9212 52.168 34.0469C50.9309 35.6229 49.4555 36.1783 46.4747 36.1783H44.567V49.8371V63.496H48.6357C52.0189 63.4809 52.7344 63.4509 52.9877 63.2558C53.2709 63.0457 53.2858 62.8055 53.3604 59.5334L53.4348 56.0212L56.7138 52.659C58.5171 50.8278 60.4695 48.6664 61.0508 47.8859C63.7484 44.2385 65.3431 40.7113 66.2821 36.2534C66.6696 34.4221 66.6994 34.0619 66.6994 30.6246C66.6994 27.3676 66.6547 26.7522 66.3566 25.2362C65.4922 20.9584 63.6143 16.7106 61.1552 13.4685C60.1566 12.1627 57.8166 9.74617 56.4901 8.66546ZM50.6031 28.6434C50.305 28.2232 49.8728 27.8629 49.3511 27.5777C48.8146 27.3075 48.3079 27.1724 47.8458 27.1724C46.8622 27.1724 45.655 27.8179 45.0886 28.6434C44.642 29.2879 44.6415 29.3187 44.597 31.621L44.5968 31.6303L44.552 33.9568L46.6833 33.8968C48.6805 33.8518 48.8593 33.8218 49.5002 33.4465C49.8728 33.2214 50.3795 32.7561 50.618 32.4108C51.0055 31.8404 51.0502 31.6603 51.0502 30.5346C51.0502 29.4089 51.0055 29.2438 50.6031 28.6434ZM42.227 43.0827C42.2866 43.0827 42.3314 41.5217 42.3314 39.6305V36.1783H38.9034H35.4755V39.6305C35.4755 41.6268 35.5351 43.0827 35.6096 43.0827C35.6842 43.0827 36.1015 42.9026 36.5486 42.6625C37.264 42.3022 37.4876 42.2572 38.9034 42.2572C40.3044 42.2572 40.5578 42.3022 41.303 42.6625C41.765 42.9026 42.1823 43.0827 42.227 43.0827ZM42.0481 46.64C41.78 45.8595 41.0496 45.049 40.3193 44.7188C39.1419 44.1784 37.5323 44.4336 36.6231 45.3042C35.7289 46.1447 35.5798 46.7001 35.565 49.0116L35.55 51.1129H38.9034H42.2568V49.1617C42.242 47.9609 42.1674 46.9853 42.0481 46.64ZM42.3314 63.496V58.4677V53.4395H38.9034H35.4755V58.4677V63.496H38.9034H42.3314ZM51.1247 67.9989V66.8731V65.7474H38.9034H26.6822V66.8731V67.9989V70.2504V70.6256C26.6822 71.0759 27.2336 72.5618 27.8596 73.8227L28.3216 74.7533H38.9034H49.4853L49.9473 73.8227C50.5733 72.5618 51.1247 71.0759 51.1247 70.6256V70.2504V67.9989Z" fill="black"/>
<path d="M49.2899 22.0141C49.2899 16.2822 44.6434 11.6357 38.9115 11.6357C33.1797 11.6357 28.5332 16.2822 28.5332 22.0141" stroke="#0A9995" stroke-width="1.024" stroke-dasharray="4.1 3.07"/>
</g>
</g>
</g>
<defs>
<clipPath id="clip0_1_122">
<rect width="76.8" height="76.8" fill="white" transform="translate(0.623047 0.219727)"/>
</clipPath>
<clipPath id="clip1_1_122">
<rect width="76.8" height="76.8" fill="white" transform="translate(0.623047 0.219727)"/>
</clipPath>
<clipPath id="clip2_1_122">
<rect width="76.8" height="76.8" fill="white" transform="translate(0.623047 0.219727)"/>
</clipPath>
</defs>
</svg>
