<svg width="78" height="78" viewBox="0 0 78 78" fill="none" xmlns="http://www.w3.org/2000/svg">
<g clip-path="url(#clip0_1_108)">
<g clip-path="url(#clip1_1_108)">
<g clip-path="url(#clip2_1_108)">
<path fill-rule="evenodd" clip-rule="evenodd" d="M25.1688 0.900593C25.0638 0.945618 24.8837 1.17074 24.7636 1.39587C24.5835 1.75607 24.5385 2.59654 24.5385 5.86835V9.90559L23.9532 10.0107C23.638 10.0557 22.8426 10.3708 22.1671 10.701C20.2461 11.6616 18.8654 13.3125 18.145 15.5037C17.9048 16.2241 17.8748 17.0495 17.8147 22.2574L17.7698 28.1707L17.1394 28.8611C14.5429 31.6527 12.2017 35.915 11.0009 40.0423C7.02376 53.7449 13.5223 68.333 26.4145 74.6515C35.5997 79.154 46.6758 78.4787 55.2006 72.8955C57.1666 71.6049 58.0521 70.8844 59.8682 69.1135C66.2167 62.87 69.3984 54.1351 68.5129 45.3553C67.9126 39.472 65.4362 33.5888 61.7892 29.3714L60.7236 28.1407L60.6786 22.2425C60.6185 17.0495 60.5885 16.2241 60.3484 15.5037C59.8682 14.063 59.3428 13.2074 58.2472 12.1269C57.1216 11.0162 56.011 10.3709 54.6902 10.0557L53.9549 9.87558V6.04845C53.9549 2.13127 53.8648 1.36585 53.3995 1.00565C53.1744 0.840562 50.713 0.810547 39.2466 0.810547C31.6074 0.810547 25.2739 0.855568 25.1688 0.900593ZM33.5435 14.3031H30.1666H26.7898V8.67491V3.04679H30.1666H33.5435H35.7947H39.1716H42.5485H44.9498H48.2517H51.5535V8.67491V14.3031H48.2517H44.9498H42.5485H39.1716H35.7947H33.5435ZM24.5385 13.3575V14.5282L23.9832 14.8283C23.3078 15.1885 22.6174 16.1341 22.4374 16.9445C22.3623 17.2597 22.2873 19.1657 22.2873 21.1769C22.2873 24.0884 22.3323 24.914 22.5123 25.2441C22.9476 26.1146 23.4279 26.0696 25.1688 25.004C33.7836 19.7661 44.7247 19.7661 53.3245 25.004C55.0655 26.0696 55.5457 26.1146 55.981 25.2441C56.1611 24.914 56.206 24.0884 56.206 21.1769C56.206 19.1657 56.1311 17.2597 56.056 16.9445C55.8759 16.1341 55.1855 15.1885 54.5102 14.8283L53.9549 14.5282V13.3575C53.9549 12.487 53.9998 12.2018 54.1499 12.2018C54.2701 12.2018 54.7653 12.412 55.2755 12.6671C56.8214 13.4326 57.977 14.9935 58.3073 16.7344C58.3973 17.1546 58.4573 20.0812 58.4573 23.248V29.0112L59.3878 30.0168C67.1922 38.6165 68.633 51.2986 62.9148 61.4592C61.1588 64.611 58.3222 67.8528 55.5307 69.9389C52.0937 72.5054 48.1016 74.2163 43.599 75.0417C41.618 75.402 36.8754 75.402 34.8942 75.0417C27.1199 73.6159 20.6964 69.4136 16.479 62.9901C12.2767 56.5965 11.031 48.5521 13.0571 41.0179C14.1227 37.0856 16.1938 33.2886 19.0455 30.0768L20.036 28.9661V23.233C20.036 19.9761 20.096 17.1546 20.1861 16.6894C20.5162 14.9634 21.6719 13.4326 23.2178 12.6671C23.728 12.412 24.2233 12.2018 24.3433 12.2018C24.4935 12.2018 24.5385 12.487 24.5385 13.3575ZM53.2794 16.6444C53.8348 16.8694 53.9549 17.4849 53.9549 20.1413V22.6927L51.9737 21.7471C48.0116 19.8561 44.6797 19.0307 40.2973 18.8506C35.5396 18.6555 30.947 19.616 26.5346 21.7322L24.5385 22.6927V20.1413C24.5385 17.5598 24.6585 16.8545 25.1688 16.6593C25.454 16.5393 52.9793 16.5393 53.2794 16.6444Z" fill="black"/>
<path d="M36.3968 23.4582C32.6297 23.9235 28.7875 25.3342 25.6208 27.4054C23.5046 28.7861 23.0394 29.2364 23.0394 29.8517C23.0394 30.4821 23.4897 30.9623 24.075 30.9623C24.3151 30.9623 24.7654 30.7522 25.1555 30.467C28.2022 28.1558 31.2189 26.775 34.896 25.9946C37.0272 25.5444 41.0044 25.4993 43.2256 25.9196C52.6058 27.6755 59.7948 34.8645 61.5507 44.2448C61.7609 45.3254 61.8359 46.4359 61.8359 48.222C61.8359 50.0079 61.7609 51.1186 61.5507 52.1992C59.8098 61.5644 52.5908 68.7834 43.2256 70.5244C41.1544 70.9145 37.3424 70.9145 35.2712 70.5244C30.2284 69.5788 25.4107 66.8473 22.1689 63.0802C17.2461 57.362 15.4902 49.9029 17.3363 42.5939C18.0566 39.7122 19.1673 37.3709 21.0732 34.7145C21.6587 33.904 21.9888 33.2887 21.9888 33.0185C21.9888 32.4632 21.5085 32.013 20.8782 32.013C20.2629 32.013 19.8126 32.4782 18.4318 34.5944C13.0288 42.8489 12.9988 53.4449 18.3418 61.7295C23.4446 69.6088 32.6147 73.9912 41.9198 72.9707C50.5046 72.0402 58.0839 66.6372 61.7609 58.8329C65.4379 51.0135 64.8226 41.9335 60.14 34.7145C56.3729 28.8912 50.3545 24.899 43.5258 23.6833C41.9049 23.3982 37.9577 23.278 36.3968 23.4582Z" fill="black"/>
<path d="M37.1439 27.9005C29.8348 28.831 24.0416 32.8982 20.9199 39.2917C18.1133 45.04 18.1133 51.4035 20.9199 57.1517C23.7565 62.9449 29.0694 67.0121 35.448 68.2878C37.0989 68.603 41.061 68.6481 42.697 68.3479C44.3929 68.0477 47.2445 67.0572 48.6853 66.2918C57.0599 61.7893 61.3074 52.3191 58.996 43.254C57.09 35.7048 51.0266 29.8816 43.3723 28.2457C42.0517 27.9605 38.3146 27.7503 37.1439 27.9005ZM42.8171 30.4219C46.5691 31.2324 49.7509 33.0334 52.3774 35.7798C54.7486 38.2712 56.2795 41.1829 57.045 44.6948C57.4051 46.3307 57.4051 50.0828 57.045 51.7487C56.2946 55.2457 54.7486 58.1723 52.3174 60.7237C44.0177 69.4586 29.6847 67.7926 23.5614 57.3768C20.2445 51.7337 20.2445 44.7098 23.5614 39.0667C26.3079 34.384 31.0205 31.1723 36.3934 30.2868C37.9843 30.0167 41.3012 30.0917 42.8171 30.4219Z" fill="black"/>
<path d="M39.1889 46.6815C42.4616 46.6815 45.1146 44.0285 45.1146 40.7558C45.1146 37.4831 42.4616 34.8301 39.1889 34.8301C35.9162 34.8301 33.2632 37.4831 33.2632 40.7558C33.2632 44.0285 35.9162 46.6815 39.1889 46.6815Z" stroke="#0A9995" stroke-width="1.536" stroke-dasharray="4.1 1.02"/>
<path d="M29.8683 50.5332C27.4369 51.3137 25.9511 53.1447 25.786 55.5611L25.7109 56.7017L26.4613 57.6922C31.5792 64.4009 40.6142 66.0818 47.7732 61.6394C49.0639 60.8289 51.5253 58.4726 52.2907 57.302C52.741 56.6116 52.771 56.4765 52.6959 55.6361C52.5158 53.5349 51.3451 51.8089 49.4841 50.8935L48.4786 50.3981L39.4736 50.3681C32.4797 50.3381 30.3335 50.3832 29.8683 50.5332ZM48.1184 52.7394C49.244 53.0846 50.1896 54.1803 50.4297 55.4409C50.5197 55.9062 50.4446 56.0413 49.6492 57.0018C48.4185 58.4576 47.0828 59.5082 45.3268 60.3787C43.0606 61.5193 41.8899 61.7745 39.1734 61.7745C37.1773 61.7745 36.7721 61.7294 35.6014 61.3842C33.8904 60.8589 33.125 60.4988 31.6542 59.5383C30.3185 58.6678 28.2023 56.5365 28.0522 55.9212C27.7971 54.9456 28.9678 53.2197 30.1684 52.7995C30.9639 52.5143 47.2029 52.4693 48.1184 52.7394Z" fill="black"/>
</g>
</g>
</g>
<defs>
<clipPath id="clip0_1_108">
<rect width="76.8" height="76.8" fill="white" transform="translate(0.623047 0.810547)"/>
</clipPath>
<clipPath id="clip1_1_108">
<rect width="76.8" height="76.8" fill="white" transform="translate(0.623047 0.810547)"/>
</clipPath>
<clipPath id="clip2_1_108">
<rect width="76.8" height="76.8" fill="white" transform="translate(0.623047 0.810547)"/>
</clipPath>
</defs>
</svg>
