<svg width="78" height="78" viewBox="0 0 78 78" fill="none" xmlns="http://www.w3.org/2000/svg">
<g clip-path="url(#clip0_1_116)">
<g clip-path="url(#clip1_1_116)">
<g clip-path="url(#clip2_1_116)">
<path d="M4.20703 32.8027L27.247 32.8028" stroke="#0A9995" stroke-width="2.048" stroke-dasharray="3.07 2.05"/>
<path d="M50.7988 42.1436H73.8388" stroke="#0A9995" stroke-width="2.048" stroke-dasharray="3.07 2.05"/>
<path fill-rule="evenodd" clip-rule="evenodd" d="M8.2405 0.836833C5.65777 1.76773 4.42647 4.48535 5.50761 6.93269L5.77789 7.57832L5.0271 8.02875C3.10507 9.18486 2.33926 11.6323 3.25523 13.6892L3.54053 14.3498L2.87983 14.7102C0.552368 15.9413 -0.10833 19.1995 1.5284 21.3465L2.02392 21.9922L1.5284 22.6378C-0.198426 24.92 0.642464 28.2983 3.24021 29.4544L3.88589 29.7396V34.7244C3.88589 37.4721 3.94596 39.9344 4.03605 40.2197C4.04928 40.2667 4.06038 40.3113 4.07091 40.3535C4.09797 40.4622 4.12123 40.5555 4.16692 40.6357C4.44547 41.1248 5.558 41.1258 13.4532 41.1335C14.0531 41.1341 14.6922 41.1347 15.3731 41.1355H26.0343L28.0614 43.2977C30.6592 46.0604 31.6352 47.6819 31.9055 49.6488L32.0106 50.4445H30.1787C28.4368 50.4445 28.3318 50.4596 27.9864 50.8199L27.611 51.1803V62.321C27.611 73.3866 27.611 73.4617 27.2957 74.0172C26.9203 74.6779 26.0494 75.2184 25.3736 75.2184C24.6078 75.2184 23.7519 74.6928 23.4065 74.0172C23.1362 73.4767 23.1062 73.1464 23.1062 69.618C23.1062 65.9995 23.0912 65.8043 22.8059 65.489C22.3855 65.0386 21.5746 65.0386 21.1541 65.489C20.8689 65.8043 20.8538 65.9995 20.8538 69.618C20.8538 73.0563 20.8238 73.4767 20.5685 73.9872C20.2382 74.6328 19.3072 75.2184 18.6165 75.2184C17.8506 75.2184 16.9948 74.6928 16.6494 74.0172C16.3791 73.4767 16.349 73.1464 16.349 69.618C16.349 65.9995 16.3341 65.8043 16.0488 65.489C15.6283 65.0386 14.8174 65.0386 14.397 65.489C14.1117 65.7893 14.0967 65.9995 14.0967 68.4919C14.0967 71.5849 13.9616 72.0503 12.9255 72.6359C12.1896 73.0412 11.559 73.0563 10.7932 72.6659C9.74209 72.1254 9.59193 71.6149 9.59193 68.4919C9.59193 65.9995 9.57691 65.7893 9.29161 65.489C8.87116 65.0386 8.06031 65.0386 7.63986 65.489C7.38459 65.7743 7.33955 66.0145 7.33955 67.3958C7.33955 68.7621 7.2945 69.0625 6.99418 69.5729C6.15329 71.0443 4.30633 71.0743 3.22519 69.618C2.90986 69.1975 2.90986 69.0925 2.90986 60.309C2.90986 51.5256 2.90986 51.4054 3.25523 50.2493C3.67567 48.7629 4.56161 47.0213 5.44754 45.8801C6.24338 44.8442 6.3485 44.1985 5.80793 43.6881C5.04212 42.9823 4.32136 43.4478 2.96992 45.4747C2.11402 46.7811 1.43831 48.3275 0.987829 50.0542C0.672495 51.2403 0.65748 51.5106 0.65748 60.4291V69.588L1.01786 70.2936C1.48335 71.2395 2.39932 72.1704 3.25523 72.5608C4.21624 72.9963 5.94307 73.0112 6.88907 72.5758L7.56478 72.2756L8.01526 73.0263C9.17148 74.9481 11.6191 75.7139 13.6763 74.798L14.337 74.5127L14.6973 75.1733C15.9287 77.5005 19.187 78.1612 21.3344 76.5247L21.98 76.0292L22.6257 76.5247C24.9081 78.2512 28.2867 77.4104 29.4429 74.813L29.7282 74.1673H34.7134C37.4613 74.1673 39.924 74.1073 40.2094 74.0172C40.2564 74.004 40.301 73.9928 40.3433 73.9823C40.4543 73.9547 40.5492 73.9311 40.6306 73.8835C41.1145 73.6002 41.1156 72.4696 41.1232 64.6137C41.1238 64.0146 41.1244 63.3763 41.1253 62.6964V52.0361L43.0173 50.2343C45.2697 48.1023 45.8553 47.6368 47.1016 47.0062C48.0476 46.5258 49.4741 46.0904 50.0897 46.0904C50.4351 46.0904 50.4351 46.1204 50.4351 47.8921C50.4351 49.6188 50.4502 49.7238 50.8105 50.0692L51.1709 50.4445H62.2976C73.1541 50.4445 73.4395 50.4445 74.0101 50.7449C74.6858 51.0901 75.2113 51.946 75.2113 52.7118C75.2113 53.4023 74.6257 54.3333 73.9801 54.6636C73.4695 54.9189 73.049 54.9489 69.6103 54.9489C65.9915 54.9489 65.7963 54.9638 65.4811 55.2491C65.0305 55.6696 65.0305 56.4804 65.4811 56.9007C65.7963 57.186 65.9915 57.2011 69.6103 57.2011C73.1391 57.2011 73.4695 57.2311 74.0101 57.5013C74.6858 57.8467 75.2113 58.7025 75.2113 59.4682C75.2113 60.1438 74.6707 61.0147 74.0101 61.3901C73.4695 61.6904 73.2293 61.7053 69.6254 61.7053C65.9915 61.7053 65.7963 61.7204 65.4811 62.0057C65.0305 62.426 65.0305 63.2368 65.4811 63.6573C65.7813 63.9425 65.9915 63.9575 68.4842 63.9575C71.6076 63.9575 72.118 64.1076 72.6586 65.1587C73.049 65.9094 73.034 66.555 72.6436 67.2607C72.043 68.3267 71.5774 68.4619 68.4992 68.4619C65.9915 68.4619 65.7813 68.4769 65.4811 68.7621C65.0305 69.1826 65.0305 69.9933 65.4811 70.4137C65.7663 70.669 66.0066 70.714 67.373 70.714C69.6704 70.714 70.5263 71.2545 70.6615 72.801C70.7365 73.5667 70.3912 74.2574 69.6103 74.828C69.19 75.1433 69.0848 75.1433 60.3005 75.1433C51.5163 75.1433 51.3961 75.1433 50.2399 74.798C48.7533 74.3775 47.0115 73.4917 45.8703 72.6058C44.8341 71.8101 44.1885 71.705 43.6779 72.2455C42.9722 73.0112 43.4377 73.7319 45.4648 75.0832C46.7712 75.939 48.3179 76.6147 50.0447 77.0651C51.231 77.3804 51.5012 77.3955 60.4207 77.3955H69.5803L70.2861 77.0351C71.2321 76.5696 72.073 75.7439 72.5234 74.828C73.004 73.852 73.019 72.1704 72.5685 71.1644L72.2682 70.4888L73.019 70.0383C74.941 68.8822 75.7068 66.4349 74.7909 64.378L74.5056 63.7173L75.1663 63.357C77.4937 62.1258 78.1544 58.8676 76.5177 56.7206L76.0222 56.075L76.5177 55.4293C78.2445 53.1472 77.4036 49.7689 74.8059 48.6128L74.1602 48.3275V43.3427C74.1602 40.5951 74.1002 38.1327 74.0101 37.8475C73.9968 37.8004 73.9857 37.7558 73.9752 37.7136C73.9481 37.605 73.9249 37.5116 73.8792 37.4314C73.6007 36.9424 72.4881 36.9412 64.5929 36.9337C63.993 36.933 63.3539 36.9324 62.673 36.9315H52.0118L49.9847 34.7694C47.3869 32.0068 46.4109 30.3853 46.1406 28.4033L46.0355 27.6226H47.8674C49.6093 27.6226 49.7143 27.6076 50.0597 27.2472L50.4351 26.8869V15.7612C50.4351 4.90575 50.4351 4.62047 50.7355 4.04992C51.0808 3.37427 51.9367 2.84877 52.6875 2.84877C53.4383 2.84877 54.2942 3.37427 54.6396 4.04992C54.9099 4.59045 54.9399 4.92076 54.9399 8.44915C54.9399 12.0677 54.9549 12.2628 55.2402 12.5781C55.6606 13.0286 56.4715 13.0286 56.892 12.5781C57.1772 12.2628 57.1923 12.0677 57.1923 8.44915C57.1923 4.92076 57.2223 4.59045 57.4925 4.04992C57.8379 3.37427 58.6939 2.84877 59.4447 2.84877C60.1955 2.84877 61.0513 3.37427 61.3967 4.04992C61.667 4.59045 61.6971 4.92076 61.6971 8.44915C61.6971 12.0677 61.712 12.2628 61.9973 12.5781C62.2075 12.7883 62.4928 12.9085 62.8232 12.9085C63.1536 12.9085 63.4389 12.7883 63.6491 12.5781C63.9344 12.2779 63.9494 12.0677 63.9494 9.57524C63.9494 6.45223 64.0996 5.94174 65.1507 5.40122C65.9015 5.02586 66.5021 5.02586 67.2529 5.40122C68.304 5.94174 68.4541 6.45223 68.4541 9.57524C68.4541 12.0677 68.4692 12.2779 68.7545 12.5781C68.9647 12.7883 69.25 12.9085 69.5803 12.9085C70.4963 12.9085 70.7065 12.5031 70.7065 10.6863C70.7065 8.3891 71.2471 7.53328 72.7938 7.39814C73.5596 7.32307 74.2503 7.6684 74.8209 8.44915C75.1363 8.86956 75.1363 8.97466 75.1363 17.7581C75.1363 26.5416 75.1363 26.6617 74.7909 27.8178C74.3704 29.3042 73.4844 31.0459 72.5986 32.187C71.8027 33.223 71.6976 33.8686 72.2381 34.3791C73.004 35.0847 73.7248 34.6193 75.0761 32.5924C75.9321 31.2861 76.6077 29.7396 77.0583 28.013C77.3736 26.8269 77.3886 26.5565 77.3886 17.638V8.47918L77.0282 7.7735C76.5628 6.82759 75.6467 5.89669 74.7909 5.50632C73.8298 5.0709 72.1031 5.05589 71.157 5.49131L70.4814 5.7916L70.0308 5.04088C68.8746 3.11903 66.427 2.3533 64.3698 3.26917L63.7091 3.55445L63.3488 2.89381C62.1174 0.566577 58.8591 -0.094066 56.7117 1.54251L56.0661 2.03799L55.4204 1.54251C53.108 -0.229196 49.5642 0.731731 48.5431 3.4043L48.2879 4.04992H42.9122C37.5665 4.04992 37.5365 4.04993 37.2211 4.38024C36.9208 4.69554 36.9208 4.84569 36.9208 15.3708V26.0461L34.7585 28.073C31.9956 30.6706 30.3739 31.6464 28.4068 31.9168L27.611 32.0218V30.1901C27.611 28.4484 27.5959 28.3433 27.2356 27.9979L26.8752 27.6226H15.7484C4.89196 27.6226 4.60665 27.6226 4.03605 27.3223C3.36034 26.977 2.83478 26.1211 2.83478 25.3704C2.83478 24.6497 3.33031 23.8239 4.00602 23.4486C4.57662 23.1333 4.7418 23.1183 8.42068 23.1183C12.0546 23.1183 12.2497 23.1032 12.565 22.818C13.0156 22.3976 13.0156 21.5868 12.565 21.1664C12.2497 20.8811 12.0546 20.8661 8.42068 20.8661C4.7418 20.8661 4.57662 20.8511 4.00602 20.5357C3.33031 20.1604 2.83478 19.3346 2.83478 18.6139C2.83478 17.8632 3.36034 17.0073 4.03605 16.662C4.57662 16.3918 4.90697 16.3618 8.43571 16.3618C12.0546 16.3618 12.2497 16.3467 12.565 16.0615C13.0156 15.6411 13.0156 14.8303 12.565 14.4099C12.2648 14.1246 12.0546 14.1096 9.54688 14.1096C7.03923 14.1096 6.81399 14.0796 6.25841 13.7793C5.17726 13.1636 4.81688 11.9325 5.38748 10.8064C5.92805 9.75541 6.43859 9.60526 9.56189 9.60526C12.0546 9.60526 12.2648 9.59025 12.565 9.30498C13.0156 8.88457 13.0156 8.07379 12.565 7.65339C12.2798 7.39814 12.0395 7.3531 10.6731 7.3531C8.37564 7.3531 7.51974 6.81258 7.38459 5.26609C7.30951 4.50036 7.65488 3.80969 8.43571 3.23915C8.85615 2.92385 8.96126 2.92384 17.7456 2.92384C26.5298 2.92384 26.65 2.92384 27.8062 3.26917C29.2928 3.68957 31.0346 4.57543 32.1758 5.46128C33.212 6.25705 33.8576 6.36214 34.3681 5.82162C35.0739 5.05589 34.6084 4.3352 32.5813 2.98389C31.3199 2.1581 29.7883 1.48245 28.0914 1.00199C26.9867 0.688496 26.639 0.686699 18.0754 0.642421L17.9258 0.641645C9.98234 0.611616 8.84113 0.626631 8.2405 0.836833ZM41.4256 15.8363V25.3704H40.2994H39.1732V15.8363V6.30209H40.2994H41.4256V15.8363ZM48.1827 15.8363V25.3704H45.9303H43.6779V15.8363V6.30209H45.9303H48.1827V15.8363ZM43.9182 28.7487C44.1435 30.13 44.8792 31.9768 45.6601 33.1629C46.0054 33.6884 47.2217 35.1298 48.363 36.346L50.4351 38.5531L50.4051 41.1506L50.3601 43.7481L49.3089 43.9283C47.9274 44.1535 46.0806 44.8892 44.8943 45.6699C44.3687 46.0153 42.9272 47.2314 41.7108 48.3726L39.5035 50.4445L36.9058 50.4145L34.308 50.3695L34.1279 49.3184C33.9026 47.9371 33.1669 46.0904 32.386 44.9042C32.0407 44.3787 30.8244 42.9374 29.6831 41.7212L27.611 39.514L27.641 36.9166L27.686 34.3191L28.7372 34.1388C30.1187 33.9137 31.9655 33.1779 33.1518 32.3972C33.6924 32.0518 35.1039 30.8356 36.3051 29.6946L38.4975 27.6376L41.1103 27.6676L43.7381 27.6977L43.9182 28.7487ZM25.3586 32.1269V34.3791V36.6313V37.7574V38.8834H15.8235H6.28843V37.7574V36.6313V34.3791V32.1269V29.8747H15.8235H25.3586V32.1269ZM71.7577 40.3098V41.4359V43.6881V45.9402V48.1923H62.2226H52.6875V45.9402V43.6881V41.4359V40.3098V39.1837H62.2226H71.7577V40.3098ZM34.3681 62.3059V71.9152H32.1158H29.8634V62.3059V52.6967H32.1158H34.3681V62.3059ZM38.8729 62.3059V71.9152H37.7467H36.6205V62.3059V52.6967H37.7467H38.8729V62.3059Z" fill="black"/>
</g>
</g>
</g>
<defs>
<clipPath id="clip0_1_116">
<rect width="76.8" height="76.8" fill="white" transform="translate(0.623047 0.629883)"/>
</clipPath>
<clipPath id="clip1_1_116">
<rect width="76.8" height="76.8" fill="white" transform="translate(0.623047 0.629883)"/>
</clipPath>
<clipPath id="clip2_1_116">
<rect width="76.8" height="76.8" fill="white" transform="translate(0.623047 0.629883)"/>
</clipPath>
</defs>
</svg>
